<svg xmlns="http://www.w3.org/2000/svg" width="16" height="16" viewBox="0 0 16 16">
    <path fill="#FFF" fill-rule="nonzero" d="M15.429 4H12.57V.571A.571.571 0 0 0 12 0H.571A.571.571 0 0 0 0 .571v13.143A2.286 2.286 0 0 0 2.286 16h11.428A2.286 2.286 0 0 0 16 13.714V4.571A.571.571 0 0 0 15.429 4zM4.57 2.857H8A.571.571 0 1 1 8 4H4.571a.571.571 0 1 1 0-1.143zm5.143 10.857H2.857a.571.571 0 1 1 0-1.143h6.857a.571.571 0 1 1 0 1.143zm0-2.285H2.857a.571.571 0 1 1 0-1.143h6.857a.571.571 0 1 1 0 1.143zm0-2.286H2.857a.571.571 0 1 1 0-1.143h6.857a.571.571 0 1 1 0 1.143zm0-2.286H2.857a.571.571 0 1 1 0-1.143h6.857a.571.571 0 1 1 0 1.143zm5.143 6.857a1.143 1.143 0 0 1-2.286 0V5.143h2.286v8.571z"/>
</svg>
