<svg xmlns="http://www.w3.org/2000/svg" width="15" height="15" viewBox="0 0 15 15">
    <g fill="#FFF" fill-rule="nonzero">
        <path d="M2.3 7.2c.35 0 .666-.146.9-.38l1.283.666c-.007.055-.016.108-.016.164 0 .744.583 1.35 1.3 1.35.716 0 1.3-.606 1.3-1.35 0-.208-.05-.402-.13-.578l1.74-1.807c.169.084.356.135.556.135.717 0 1.3-.606 1.3-1.35 0-.14-.026-.273-.065-.4l1.512-1.177c.207.143.454.227.72.227.717 0 1.3-.606 1.3-1.35C14 .606 13.417 0 12.7 0c-.717 0-1.3.606-1.3 1.35 0 .14.027.273.065.4L9.953 2.927a1.258 1.258 0 0 0-.72-.227c-.716 0-1.3.606-1.3 1.35 0 .208.05.402.13.578l-1.74 1.807a1.245 1.245 0 0 0-.556-.135c-.35 0-.666.146-.9.38l-1.283-.666c.007-.055.016-.108.016-.164 0-.744-.583-1.35-1.3-1.35-.717 0-1.3.606-1.3 1.35 0 .744.583 1.35 1.3 1.35z"/>
        <path d="M14.56 14.088h-.468V4.456a.448.448 0 0 0-.44-.456h-1.757a.448.448 0 0 0-.44.456v9.632h-.879V7.191a.448.448 0 0 0-.44-.456H8.38a.448.448 0 0 0-.44.456v6.897h-.878v-3.251a.448.448 0 0 0-.44-.456H4.863a.448.448 0 0 0-.44.456v3.251h-.878V9.014a.448.448 0 0 0-.44-.456H1.348a.448.448 0 0 0-.44.456v5.074H.44a.448.448 0 0 0-.439.456c0 .252.197.456.44.456h14.12c.243 0 .44-.204.44-.456a.448.448 0 0 0-.44-.456z"/>
    </g>
</svg>
