<svg xmlns="http://www.w3.org/2000/svg" width="15" height="15" viewBox="0 0 15 15">
    <path fill="#FFF" fill-rule="nonzero" d="M7.297 10.125a2.625 2.625 0 1 1 0-5.25 2.625 2.625 0 0 1 0 5.25m5.572-1.897c.03-.24.053-.48.053-.728s-.023-.495-.053-.75l1.583-1.223a.378.378 0 0 0 .09-.48l-1.5-2.595c-.09-.164-.293-.232-.458-.164l-1.867.75a5.437 5.437 0 0 0-1.268-.735L9.172.315A.38.38 0 0 0 8.797 0h-3a.38.38 0 0 0-.375.315l-.278 1.988a5.437 5.437 0 0 0-1.267.735l-1.868-.75a.369.369 0 0 0-.457.164l-1.5 2.596a.37.37 0 0 0 .09.48L1.724 6.75c-.03.255-.052.502-.052.75s.022.488.052.728L.142 9.473a.37.37 0 0 0-.09.48l1.5 2.595c.09.164.292.224.457.164l1.868-.757c.39.3.795.555 1.267.742l.278 1.988a.38.38 0 0 0 .375.315h3a.38.38 0 0 0 .375-.315l.277-1.988a5.461 5.461 0 0 0 1.268-.742l1.867.757c.165.06.368 0 .458-.164l1.5-2.596a.378.378 0 0 0-.09-.48l-1.583-1.244z"/>
</svg>
