<svg xmlns="http://www.w3.org/2000/svg" width="22" height="22" viewBox="0 0 22 22">
    <g fill="none" fill-rule="nonzero">
        <circle cx="11" cy="11" r="11" fill="#F0F0F0"/>
        <g fill="#0052B4">
            <path d="M2.25 4.275a10.94 10.94 0 0 0-1.893 3.82H6.07l-3.82-3.82zM21.562 8.095a10.941 10.941 0 0 0-1.892-3.82l-3.82 3.82h5.712zM.357 13.824a10.942 10.942 0 0 0 1.892 3.82l3.82-3.82H.358zM17.645 2.25a10.941 10.941 0 0 0-3.82-1.893V6.07l3.82-3.82zM4.275 19.67a10.941 10.941 0 0 0 3.82 1.892V15.85l-3.82 3.82zM8.095.357a10.942 10.942 0 0 0-3.82 1.892l3.82 3.82V.358zM13.824 21.562a10.942 10.942 0 0 0 3.82-1.892l-3.82-3.82v5.712zM15.85 13.824l3.82 3.82a10.941 10.941 0 0 0 1.892-3.82H15.85z"/>
        </g>
        <g fill="#D80027">
            <path d="M21.907 9.565h-9.472V.093a11.11 11.11 0 0 0-2.87 0v9.472H.093a11.11 11.11 0 0 0 0 2.87h9.472v9.472a11.109 11.109 0 0 0 2.87 0v-9.472h9.472a11.109 11.109 0 0 0 0-2.87z"/>
            <path d="M13.87 13.87l4.908 4.908c.226-.225.441-.461.647-.706l-4.203-4.202H13.87zM8.13 13.87l-4.908 4.908c.225.226.461.441.706.647l4.202-4.203V13.87zM8.13 8.13L3.222 3.222c-.226.225-.441.461-.647.706L6.778 8.13H8.13zM13.87 8.13l4.908-4.908a11.014 11.014 0 0 0-.706-.647L13.87 6.778V8.13z"/>
        </g>
    </g>
</svg>
